<svg width="1440" height="219" viewBox="0 0 1440 219" fill="none" xmlns="http://www.w3.org/2000/svg">
<g clip-path="url(#clip0_21_172)">
<path d="M1440 57.3404L1405.6 47.7933C1371.2 38.0946 1302.4 19.0003 1233.92 13.0901C1165.28 7.3315 1097.12 14.9086 1028.48 17.4848C960 19.9095 891.2 17.4848 822.72 19.1517C754.08 20.9702 685.92 27.0319 617.28 40.9738C548.8 54.7641 480 76.5862 411.52 77.4954C342.88 78.5562 274.72 58.8557 206.08 53.8548C137.6 48.7024 68.8 58.4011 34.4 63.0989L1.63536e-05 67.9482L0 325.57L34.4 325.57C68.8 325.57 137.6 325.57 206.08 325.57C274.72 325.57 342.88 325.57 411.52 325.57C480 325.57 548.8 325.57 617.28 325.57C685.92 325.57 754.08 325.57 822.72 325.57C891.2 325.57 960 325.57 1028.48 325.57C1097.12 325.57 1165.28 325.57 1233.92 325.57C1302.4 325.57 1371.2 325.57 1405.6 325.57L1440 325.57L1440 57.3404Z" fill="#534B52"/>
<path d="M1440 121.408L1405.6 118.686C1371.2 115.812 1302.4 110.368 1233.92 97.2109C1165.28 84.0537 1097.12 63.4863 1028.48 68.7794C960 74.0725 891.2 105.226 822.72 105.075C754.08 104.772 685.92 73.0138 617.28 74.5261C548.8 76.0384 480 110.822 411.52 114.602C342.88 118.383 274.72 91.1615 206.08 70.4428C137.6 49.8754 68.8 35.6596 34.4 28.703L1.9296e-05 21.5951L0 325.57L34.4 325.57C68.8 325.57 137.6 325.57 206.08 325.57C274.72 325.57 342.88 325.57 411.52 325.57C480 325.57 548.8 325.57 617.28 325.57C685.92 325.57 754.08 325.57 822.72 325.57C891.2 325.57 960 325.57 1028.48 325.57C1097.12 325.57 1165.28 325.57 1233.92 325.57C1302.4 325.57 1371.2 325.57 1405.6 325.57L1440 325.57L1440 121.408Z" fill="#423C41"/>
<path d="M1440 112.222L1405.6 118.729C1371.2 125.386 1302.4 138.399 1233.92 135.221C1165.28 131.893 1097.12 112.222 1028.48 105.111C960 98.1504 891.2 103.598 822.72 105.867C754.08 108.137 685.92 107.229 617.28 107.985C548.8 108.742 480 111.163 411.52 123.57C342.88 135.978 274.72 158.069 206.08 168.964C137.6 179.858 68.8 179.253 34.4 179.101L-1.21408e-05 178.799L-2.14577e-05 325.57L34.4 325.57C68.8 325.57 137.6 325.57 206.08 325.57C274.72 325.57 342.88 325.57 411.52 325.57C480 325.57 548.8 325.57 617.28 325.57C685.92 325.57 754.08 325.57 822.72 325.57C891.2 325.57 960 325.57 1028.48 325.57C1097.12 325.57 1165.28 325.57 1233.92 325.57C1302.4 325.57 1371.2 325.57 1405.6 325.57L1440 325.57L1440 112.222Z" fill="#312D30"/>
<path d="M1440 204.488L1405.6 209.029C1371.2 213.569 1302.4 222.65 1233.92 215.083C1165.28 207.515 1097.12 183.299 1028.48 183.601C960 183.753 891.2 208.575 822.72 214.326C754.08 220.077 685.92 207.061 617.28 199.645C548.8 192.38 480 190.866 411.52 193.137C342.88 195.407 274.72 201.461 206.08 200.25C137.6 198.888 68.8 190.412 34.4 186.023L9.12731e-06 181.785L0 325.57L34.4 325.57C68.8 325.57 137.6 325.57 206.08 325.57C274.72 325.57 342.88 325.57 411.52 325.57C480 325.57 548.8 325.57 617.28 325.57C685.92 325.57 754.08 325.57 822.72 325.57C891.2 325.57 960 325.57 1028.48 325.57C1097.12 325.57 1165.28 325.57 1233.92 325.57C1302.4 325.57 1371.2 325.57 1405.6 325.57L1440 325.57L1440 204.488Z" fill="#211F20"/>
<path d="M1440 205.392L1405.6 201.529C1371.2 197.451 1302.4 189.726 1233.92 193.159C1165.28 196.808 1097.12 211.83 1028.48 212.259C960 212.474 891.2 198.31 822.72 190.369C754.08 182.429 685.92 181.141 617.28 183.502C548.8 186.077 480 192.515 411.52 199.383C342.88 206.035 274.72 213.332 206.08 210.327C137.6 207.538 68.8 194.661 34.4 188.223L-1.23304e-05 181.785L-2.14577e-05 325.57L34.4 325.57C68.8 325.57 137.6 325.57 206.08 325.57C274.72 325.57 342.88 325.57 411.52 325.57C480 325.57 548.8 325.57 617.28 325.57C685.92 325.57 754.08 325.57 822.72 325.57C891.2 325.57 960 325.57 1028.48 325.57C1097.12 325.57 1165.28 325.57 1233.92 325.57C1302.4 325.57 1371.2 325.57 1405.6 325.57L1440 325.57L1440 205.392Z" fill="#111111"/>
</g>
<defs>
<clipPath id="clip0_21_172">
<rect width="1440" height="219" fill="white" transform="translate(1440 219) rotate(-180)"/>
</clipPath>
</defs>
</svg>
