<svg width="1440" height="208" viewBox="0 0 1440 208" fill="none" xmlns="http://www.w3.org/2000/svg">
<g clip-path="url(#clip0_18_38)">
<path d="M0 51.3167L60 44.2367C120 37.255 240 23.095 360 20.6367C480 18.1783 600 27.4217 720 35.0917C840 42.7617 960 49.055 1080 44.7283C1200 40.5 1320 25.75 1380 18.375L1440 11V188H1380C1320 188 1200 188 1080 188C960 188 840 188 720 188C600 188 480 188 360 188C240 188 120 188 60 188H0V51.3167Z" fill="#25A2E5"/>
<path d="M0 70.9578L60 71.1407C120 71.2321 240 71.5979 360 78.7301C480 85.8624 600 99.944 720 99.1211C840 98.3895 960 82.8449 1080 75.2554C1200 67.5745 1320 67.9403 1380 68.0317L1440 68.2146V188H1380C1320 188 1200 188 1080 188C960 188 840 188 720 188C600 188 480 188 360 188C240 188 120 188 60 188H0V70.9578Z" fill="#008ACF"/>
<path d="M0 132.198L60 138.715C120 145.231 240 158.263 360 159.306C480 160.479 600 149.532 720 141.06C840 132.589 960 126.594 1080 125.291C1200 123.988 1320 127.376 1380 129.201L1440 130.895V213H1380C1320 213 1200 213 1080 213C960 213 840 213 720 213C600 213 480 213 360 213C240 213 120 213 60 213H0V132.198Z" fill="#111111"/>
</g>
<defs>
<clipPath id="clip0_18_38">
<rect width="1440" height="208" fill="white"/>
</clipPath>
</defs>
</svg>
