<svg width="1440" height="207" viewBox="0 0 1440 207" fill="none" xmlns="http://www.w3.org/2000/svg">
<path d="M0 32.4534L34.4 32.7165C68.8 33.0674 137.6 33.5936 206.08 39.2949C274.56 44.9962 342.88 55.8725 411.52 55.2585C480.16 54.6445 548.8 42.7157 617.28 42.8034C685.76 42.8911 754.08 55.2585 822.72 62.2754C891.36 69.2924 960 71.0466 1028.48 64.9068C1096.96 58.767 1165.28 44.733 1233.92 32.6288C1302.56 20.5246 1371.2 10.2623 1405.6 5.08729L1440 0V207H0V32.4534Z" fill="#008ACF"/>
<path d="M0 85.6015L34.4 90.4005C68.8 95.1474 137.6 104.745 206.08 105.006C274.56 105.267 342.88 96.1906 411.52 97.7555C480.16 99.3204 548.8 111.527 617.28 118.203C683.835 124.79 754.208 126.184 822.72 122.272C891.2 118.464 960 109.597 1028.48 108.188C1096.96 106.78 1165.28 112.883 1233.92 114.187C1302.56 115.491 1371.2 112.048 1405.6 110.275L1440 108.553V181.06H0V85.6015Z" fill="#25A2E5"/>
<path d="M0 139.405L34.4 144.619C68.8 149.901 137.6 160.331 206.08 165.145C274.56 169.958 342.88 169.022 411.52 163.607C480.16 158.192 548.8 148.096 617.28 148.898C685.76 149.701 754.08 161.267 822.72 164.677C891.36 168.086 960 163.473 1028.48 161.133C1096.96 158.793 1165.28 158.793 1233.92 153.11C1302.56 147.427 1371.2 136.062 1405.6 130.379L1440 124.696V206.931H0V139.405Z" fill="#3DBBFA"/>
</svg>
