<svg width="1440" height="207" viewBox="0 0 1440 189" fill="none" xmlns="http://www.w3.org/2000/svg">
<g clip-path="url(#clip0_18_38)">
<path d="M-20 56.4636L40.8333 48.4529C101.667 40.5536 223.333 24.5324 345 21.751C466.667 18.9695 588.333 29.4278 710 38.1059C831.667 46.7841 953.333 53.9046 1075 49.0092C1196.67 44.2251 1318.33 27.5364 1379.17 19.192L1440 10.8477V211.113H1379.17C1318.33 211.113 1196.67 211.113 1075 211.113C953.333 211.113 831.667 211.113 710 211.113C588.333 211.113 466.667 211.113 345 211.113C223.333 211.113 101.667 211.113 40.8333 211.113H-20V56.4636Z" fill="#25A2E5"/>
<path d="M-20 68.702L40.8333 68.9246C101.667 69.0358 223.333 69.4808 345 78.159C466.667 86.8371 588.333 103.971 710 102.97C831.667 102.079 953.333 83.1656 1075 73.9312C1196.67 64.5855 1318.33 65.0305 1379.17 65.1417L1440 65.3643V211.113H1379.17C1318.33 211.113 1196.67 211.113 1075 211.113C953.333 211.113 831.667 211.113 710 211.113C588.333 211.113 466.667 211.113 345 211.113C223.333 211.113 101.667 211.113 40.8333 211.113H-20V68.702Z" fill="#008ACF"/>
<path d="M-20 142.135L40.8333 147.689C101.667 153.242 223.333 164.349 345 165.238C466.667 166.238 588.333 156.908 710 149.688C831.667 142.468 953.333 137.359 1075 136.248C1196.67 135.137 1318.33 138.025 1379.17 139.58L1440 141.024V211H1379.17C1318.33 211 1196.67 211 1075 211C953.333 211 831.667 211 710 211C588.333 211 466.667 211 345 211C223.333 211 101.667 211 40.8333 211H-20V142.135Z" fill="#111111"/>
</g>
<defs>
<clipPath id="clip0_18_38">
<rect width="1460" height="199" fill="white" transform="translate(-20)"/>
</clipPath>
</defs>
</svg>
