<svg width="1440" height="199" viewBox="0 0 1440 199" fill="none" xmlns="http://www.w3.org/2000/svg">
<path d="M0 53.8222L60 46.3022C120 38.8867 240 23.8467 360 21.2355C480 18.6244 600 28.4422 720 36.5889C840 44.7356 960 51.42 1080 46.8244C1200 42.3333 1320 26.6667 1380 18.8333L1440 11V199H1380C1320 199 1200 199 1080 199C960 199 840 199 720 199C600 199 480 199 360 199C240 199 120 199 60 199H0V53.8222Z" fill="#25A2E5"/>
<path d="M0 68.3029L60 68.5071C120 68.6092 240 69.0176 360 76.982C480 84.9463 600 100.671 720 99.7518C840 98.935 960 81.5768 1080 73.1019C1200 64.5249 1320 64.9333 1380 65.0354L1440 65.2397V199H1380C1320 199 1200 199 1080 199C960 199 840 199 720 199C600 199 480 199 360 199C240 199 120 199 60 199H0V68.3029Z" fill="#008ACF"/>
<path d="M0 141.153L60 145.818C120 150.483 240 159.814 360 160.56C480 161.4 600 153.562 720 147.498C840 141.433 960 137.141 1080 136.208C1200 135.275 1320 137.701 1380 139.007L1440 140.22V199H1380C1320 199 1200 199 1080 199C960 199 840 199 720 199C600 199 480 199 360 199C240 199 120 199 60 199H0V141.153Z" fill="#111111"/>
</svg>
