<svg width="1440" height="270" viewBox="0 0 1440 270" fill="none" xmlns="http://www.w3.org/2000/svg">
<g clip-path="url(#clip0_21_163)">
<path d="M0 85.2L48 100.6C96 116 192 146.8 288 149.88C384 152.92 480 128.28 576 126.6C672 124.92 768 146.28 864 141.32C960 136.4 1056 105.2 1152 108.6C1248 112 1344 150 1392 169L1440 188V270.4H1392C1344 270.4 1248 270.4 1152 270.4C1056 270.4 960 270.4 864 270.4C768 270.4 672 270.4 576 270.4C480 270.4 384 270.4 288 270.4C192 270.4 96 270.4 48 270.4H0V85.2Z" fill="#EFFAFF"/>
</g>
<defs>
<clipPath id="clip0_21_163">
<rect width="1440" height="270" fill="white"/>
</clipPath>
</defs>
</svg>
